<?xml version="1.0" encoding="utf-8"?>
<!-- Generator: Adobe Illustrator 15.1.0, SVG Export Plug-In . SVG Version: 6.00 Build 0)  -->
<!DOCTYPE svg PUBLIC "-//W3C//DTD SVG 1.1//EN" "http://www.w3.org/Graphics/SVG/1.1/DTD/svg11.dtd">
<svg version="1.1" id="Layer_1" xmlns="http://www.w3.org/2000/svg" xmlns:xlink="http://www.w3.org/1999/xlink" x="0px" y="0px"
	 width="149px" height="190px" viewBox="-25 -32 149 190" enable-background="new -25 -32 149 190" xml:space="preserve">
<g>
	<path d="M114.75-31.598h-130.5c-4.97,0-9,4.03-9,9v180.196l24.817-40.695H114.75c4.969,0,9-4.031,9-9v-130.5
		C123.75-27.568,119.719-31.598,114.75-31.598z"/>
	<g>
		<g>
			<path fill="#FFFFFF" d="M12.396,87.807c-0.783,0.598-1.918,0.941-2.881,0.941c-2.729,0-4.99-2.184-4.99-4.939
				c0-2.742,2.261-4.967,4.99-4.967c2.765,0,4.988,2.248,4.988,4.992c0,1.334-0.481,2.412-1.382,3.375l1.435,1.463h-1.357
				L12.396,87.807z M12.383,86.447c0.712-0.748,1.055-1.623,1.055-2.65c0-2.186-1.726-3.965-3.924-3.965
				c-2.195,0-3.922,1.791-3.922,3.965c0,2.156,1.751,3.961,3.922,3.961c0.71,0,1.551-0.268,2.134-0.713l-2.312-2.324h1.397
				L12.383,86.447z"/>
			<path fill="#FFFFFF" d="M18.264,84.707c0,0.715-0.025,1.527,0.419,2.135c0.418,0.584,1.231,0.916,1.933,0.916
				c0.684,0,1.43-0.32,1.876-0.854c0.509-0.609,0.471-1.447,0.471-2.197v-5.701h1.063V85c0,1.039-0.072,1.867-0.836,2.656
				c-0.658,0.707-1.613,1.092-2.576,1.092c-0.903,0-1.829-0.344-2.479-0.977c-0.836-0.801-0.939-1.676-0.939-2.771v-5.99h1.066
				v5.697H18.264z"/>
			<path fill="#FFFFFF" d="M28.626,85.865l-1.158,2.717h-1.165l4.419-10.029l4.302,10.029h-1.181l-1.129-2.717H28.626z
				 M30.694,81.039l-1.636,3.836h3.236L30.694,81.039z"/>
			<path fill="#FFFFFF" d="M37.401,78.602l7.467,7.82V79.01h1.066v10.004l-7.47-7.807v7.375h-1.063V78.602z"/>
			<path fill="#FFFFFF" d="M51.736,88.58h-1.067V80h-2.311v-0.994h5.714V80h-2.336V88.58z"/>
			<path fill="#FFFFFF" d="M57.53,88.58h-1.069v-9.574h1.069V88.58z"/>
			<path fill="#FFFFFF" d="M63.709,81.115v1.6h2.732v2.109h-2.732v3.756h-2.484v-9.574h5.496v2.109H63.709L63.709,81.115z"/>
			<path fill="#FFFFFF" d="M71.861,88.58h-2.486v-9.574h2.486V88.58z"/>
			<path fill="#FFFFFF" d="M74.758,79.006h2.488l4.559,5.857h0.027v-5.857h2.488v9.574h-2.488l-4.559-5.865h-0.027v5.865h-2.488
				V79.006z"/>
			<path fill="#FFFFFF" d="M87.217,79.006h3.53c2.663,0,4.86,2.098,4.86,4.791c0,2.691-2.209,4.783-4.86,4.783h-3.53V79.006z
				 M89.704,86.473h0.56c1.484,0,2.754-0.812,2.754-2.676c0-1.715-1.129-2.682-2.728-2.682h-0.586V86.473z"/>
		</g>
		<g>
			<circle fill="#FFFFFF" cx="35.253" cy="38.989" r="5.632"/>
			<circle fill="#8CC640" cx="49.439" cy="24.801" r="5.015"/>
			<circle fill="#FFFFFF" cx="63.629" cy="10.615" r="5.632"/>
			<circle fill="#FFFFFF" cx="49.441" cy="52.649" r="5.632"/>
			<circle fill="#FFFFFF" cx="63.629" cy="38.989" r="5.632"/>
			<circle fill="#FFFFFF" cx="77.288" cy="24.802" r="5.632"/>
			<circle fill="#8CC640" cx="77.816" cy="53.177" r="5.016"/>
			<circle fill="#FFFFFF" cx="21.593" cy="24.802" r="5.632"/>
			<circle fill="#FFFFFF" cx="35.253" cy="10.615" r="5.632"/>
			<circle fill="#FFFFFF" cx="49.441" cy="-3.046" r="5.634"/>
		</g>
	</g>
</g>
</svg>
