<?xml version="1.0" encoding="utf-8"?>
<!-- Generator: Adobe Illustrator 15.1.0, SVG Export Plug-In . SVG Version: 6.00 Build 0)  -->
<!DOCTYPE svg PUBLIC "-//W3C//DTD SVG 1.1//EN" "http://www.w3.org/Graphics/SVG/1.1/DTD/svg11.dtd">
<svg version="1.1" id="Layer_1" xmlns="http://www.w3.org/2000/svg" xmlns:xlink="http://www.w3.org/1999/xlink" x="0px" y="0px"
	 width="24px" height="24px" viewBox="-0.5 -0.5 24 24" enable-background="new -0.5 -0.5 24 24" xml:space="preserve">
<g fill-opacity="0.5">
	<g>
		<path fill="#DCDCDC" d="M-0.5,0.5c0-0.55,0.45-1,1-1l0,0c0.56,0,1,0.45,1,1l0,0c0,0.55-0.44,1-1,1l0,0C-0.05,1.5-0.5,1.05-0.5,0.5
			z"/>
		<path fill="#DCDCDC" d="M5.506,0.5c0-0.55,0.449-1,1-1l0,0c0.56,0,1,0.45,1,1l0,0c0,0.55-0.44,1-1,1l0,0
			C5.955,1.5,5.506,1.05,5.506,0.5z"/>
		<path fill="#DCDCDC" d="M-0.5,6.506c0-0.55,0.45-1,1-1l0,0c0.56,0,1,0.45,1,1l0,0c0,0.55-0.44,1-1,1l0,0
			C-0.05,7.506-0.5,7.056-0.5,6.506z"/>
		<path fill="#DCDCDC" d="M5.506,6.506c0-0.55,0.449-1,1-1l0,0c0.56,0,1,0.45,1,1l0,0c0,0.55-0.44,1-1,1l0,0
			C5.955,7.506,5.506,7.056,5.506,6.506z"/>
		<path fill="#DCDCDC" d="M2.494,3.503c0-0.55,0.45-1,1-1l0,0c0.56,0,1,0.45,1,1l0,0c0,0.55-0.44,1-1,1l0,0
			C2.944,4.503,2.494,4.053,2.494,3.503z"/>
		<path fill="#DCDCDC" d="M8.5,3.503c0-0.55,0.449-1,1-1l0,0c0.56,0,1,0.45,1,1l0,0c0,0.55-0.44,1-1,1l0,0
			C8.949,4.503,8.5,4.053,8.5,3.503z"/>
		<path fill="#DCDCDC" d="M2.494,9.5c0-0.55,0.45-1,1-1l0,0c0.56,0,1,0.45,1,1l0,0c0,0.55-0.44,1-1,1l0,0
			C2.944,10.5,2.494,10.05,2.494,9.5z"/>
		<path fill="#DCDCDC" d="M8.5,9.5c0-0.55,0.449-1,1-1l0,0c0.56,0,1,0.45,1,1l0,0c0,0.55-0.44,1-1,1l0,0
			C8.949,10.5,8.5,10.05,8.5,9.5z"/>
	</g>
	<g>
		<path fill="#DCDCDC" d="M11.501,0.5c0-0.55,0.449-1,1-1l0,0c0.562,0,1,0.45,1,1l0,0c0,0.55-0.438,1-1,1l0,0
			C11.95,1.5,11.501,1.05,11.501,0.5z"/>
		<path fill="#DCDCDC" d="M17.507,0.5c0-0.55,0.449-1,1-1l0,0c0.56,0,1,0.45,1,1l0,0c0,0.55-0.44,1-1,1l0,0
			C17.956,1.5,17.507,1.05,17.507,0.5z"/>
		<path fill="#DCDCDC" d="M11.501,6.506c0-0.55,0.449-1,1-1l0,0c0.562,0,1,0.45,1,1l0,0c0,0.55-0.438,1-1,1l0,0
			C11.95,7.506,11.501,7.056,11.501,6.506z"/>
		<path fill="#DCDCDC" d="M17.507,6.506c0-0.55,0.449-1,1-1l0,0c0.56,0,1,0.45,1,1l0,0c0,0.55-0.44,1-1,1l0,0
			C17.956,7.506,17.507,7.056,17.507,6.506z"/>
		<path fill="#DCDCDC" d="M14.495,3.503c0-0.55,0.448-1,1-1l0,0c0.562,0,1,0.45,1,1l0,0c0,0.55-0.438,1-1,1l0,0
			C14.943,4.503,14.495,4.053,14.495,3.503z"/>
		<path fill="#DCDCDC" d="M20.501,3.503c0-0.55,0.449-1,1-1l0,0c0.56,0,1,0.45,1,1l0,0c0,0.55-0.44,1-1,1l0,0
			C20.95,4.503,20.501,4.053,20.501,3.503z"/>
		<path fill="#DCDCDC" d="M14.495,9.5c0-0.55,0.448-1,1-1l0,0c0.562,0,1,0.45,1,1l0,0c0,0.55-0.438,1-1,1l0,0
			C14.943,10.5,14.495,10.05,14.495,9.5z"/>
		<path fill="#DCDCDC" d="M20.501,9.5c0-0.55,0.449-1,1-1l0,0c0.56,0,1,0.45,1,1l0,0c0,0.55-0.44,1-1,1l0,0
			C20.95,10.5,20.501,10.05,20.501,9.5z"/>
	</g>
	<g>
		<path fill="#DCDCDC" d="M-0.5,12.501c0-0.55,0.45-1,1-1l0,0c0.56,0,1,0.45,1,1l0,0c0,0.55-0.44,1-1,1l0,0
			C-0.05,13.501-0.5,13.051-0.5,12.501z"/>
		<path fill="#DCDCDC" d="M5.506,12.501c0-0.55,0.449-1,1-1l0,0c0.56,0,1,0.45,1,1l0,0c0,0.55-0.44,1-1,1l0,0
			C5.955,13.501,5.506,13.051,5.506,12.501z"/>
		<path fill="#DCDCDC" d="M-0.5,18.507c0-0.55,0.45-1,1-1l0,0c0.56,0,1,0.45,1,1l0,0c0,0.55-0.44,1-1,1l0,0
			C-0.05,19.507-0.5,19.057-0.5,18.507z"/>
		<path fill="#DCDCDC" d="M5.506,18.507c0-0.55,0.449-1,1-1l0,0c0.56,0,1,0.45,1,1l0,0c0,0.55-0.44,1-1,1l0,0
			C5.955,19.507,5.506,19.057,5.506,18.507z"/>
		<path fill="#DCDCDC" d="M2.494,15.504c0-0.55,0.45-1,1-1l0,0c0.56,0,1,0.45,1,1l0,0c0,0.551-0.44,1-1,1l0,0
			C2.944,16.504,2.494,16.055,2.494,15.504z"/>
		<path fill="#DCDCDC" d="M8.5,15.504c0-0.55,0.449-1,1-1l0,0c0.56,0,1,0.45,1,1l0,0c0,0.551-0.44,1-1,1l0,0
			C8.949,16.504,8.5,16.055,8.5,15.504z"/>
		<path fill="#DCDCDC" d="M2.494,21.501c0-0.55,0.45-1,1-1l0,0c0.56,0,1,0.45,1,1l0,0c0,0.55-0.44,1-1,1l0,0
			C2.944,22.501,2.494,22.051,2.494,21.501z"/>
		<path fill="#DCDCDC" d="M8.5,21.501c0-0.55,0.449-1,1-1l0,0c0.56,0,1,0.45,1,1l0,0c0,0.55-0.44,1-1,1l0,0
			C8.949,22.501,8.5,22.051,8.5,21.501z"/>
	</g>
	<g>
		<path fill="#DCDCDC" d="M11.501,12.501c0-0.55,0.449-1,1-1l0,0c0.562,0,1,0.45,1,1l0,0c0,0.55-0.438,1-1,1l0,0
			C11.95,13.501,11.501,13.051,11.501,12.501z"/>
		<path fill="#DCDCDC" d="M17.507,12.501c0-0.55,0.449-1,1-1l0,0c0.56,0,1,0.45,1,1l0,0c0,0.55-0.44,1-1,1l0,0
			C17.956,13.501,17.507,13.051,17.507,12.501z"/>
		<path fill="#DCDCDC" d="M11.501,18.507c0-0.55,0.449-1,1-1l0,0c0.562,0,1,0.45,1,1l0,0c0,0.55-0.438,1-1,1l0,0
			C11.95,19.507,11.501,19.057,11.501,18.507z"/>
		<path fill="#DCDCDC" d="M17.507,18.507c0-0.55,0.449-1,1-1l0,0c0.56,0,1,0.45,1,1l0,0c0,0.55-0.44,1-1,1l0,0
			C17.956,19.507,17.507,19.057,17.507,18.507z"/>
		<path fill="#DCDCDC" d="M14.495,15.504c0-0.55,0.448-1,1-1l0,0c0.562,0,1,0.45,1,1l0,0c0,0.551-0.438,1-1,1l0,0
			C14.943,16.504,14.495,16.055,14.495,15.504z"/>
		<path fill="#DCDCDC" d="M20.501,15.504c0-0.55,0.449-1,1-1l0,0c0.56,0,1,0.45,1,1l0,0c0,0.551-0.44,1-1,1l0,0
			C20.95,16.504,20.501,16.055,20.501,15.504z"/>
		<path fill="#DCDCDC" d="M14.495,21.501c0-0.55,0.448-1,1-1l0,0c0.562,0,1,0.45,1,1l0,0c0,0.55-0.438,1-1,1l0,0
			C14.943,22.501,14.495,22.051,14.495,21.501z"/>
		<path fill="#DCDCDC" d="M20.501,21.501c0-0.55,0.449-1,1-1l0,0c0.56,0,1,0.45,1,1l0,0c0,0.55-0.44,1-1,1l0,0
			C20.95,22.501,20.501,22.051,20.501,21.501z"/>
	</g>
</g>
</svg>
